<svg width="1280" height="314" viewBox="0 0 1280 314" fill="none" xmlns="http://www.w3.org/2000/svg">
<path d="M150.444 1.91392C190.171 0.523813 228.908 14.2973 258.553 40.3544C290.762 68.6726 308.517 107.754 310.908 149.976C313.018 190.261 298.917 229.744 271.659 259.879C248.791 285.082 218.19 302.255 184.5 308.792C176.221 310.367 169.199 310.971 160.867 311.421C151.491 311.529 143.218 311.285 133.882 309.939C105.894 305.905 77.2434 293.512 55.697 275.421C23.7154 249.05 3.83954 211.146 0.531634 170.222C-2.90879 128.855 10.4496 87.831 37.6833 56.1313C68.0182 21.1704 104.336 5.5141 150.444 1.91392ZM106.225 219.578C119.872 229.004 128.948 234.228 144.363 240.941L147.479 242.129C154.144 230.626 159.668 220.656 165.641 208.773C150.912 202.495 142.07 197.787 128.792 188.736L106.225 219.578ZM68.3042 184.725C74.3814 191.774 79.7323 197.667 86.6672 203.992C91.4523 208.358 95.317 211.232 100.288 215.211C100.908 215.675 101.624 216.241 102.263 216.659C106.356 210.772 110.553 204.956 114.851 199.212C118.12 194.773 121.375 190.182 124.803 185.872C118.556 181.348 112.628 176.412 107.061 171.098C105.529 169.626 94.6859 157.898 94.3353 157.758C87.734 163.926 81.3812 170.347 75.2918 177.006C73.1185 179.357 70.3184 182.292 68.3042 184.725ZM152.126 244.076C164.335 248.394 176.803 252.202 189.745 253.697L194.14 254.283C198.728 244.876 205.121 230.03 207.509 219.821C195.756 218.094 184.66 215.882 173.548 211.708C172.617 211.357 171.143 210.858 170.196 210.651C166.658 217.885 162.935 225.028 159.034 232.077C156.838 236.016 154.205 240.192 152.126 244.076ZM98.2477 154.124C105.395 163.234 114.906 171.904 124.032 179.043L127.84 181.879C135.261 171.438 144.52 159.232 152.515 149.1C147.342 144.996 142.577 141.151 137.886 136.457C136.436 135.028 135.025 133.562 133.655 132.061C132.88 131.203 130.115 128.003 129.41 127.489C125.95 130.046 122.191 133.05 118.94 135.887C112.134 141.826 104.638 147.804 98.2477 154.124ZM131.965 184.697C140.351 190.892 152.46 197.648 162.017 201.779C163.832 202.529 166.172 203.575 168.009 204.143C173.454 191.957 179.595 179.441 184.494 167.057C174.242 162.651 165.741 158.399 156.561 151.906L140.137 173.647C138.061 176.401 133.495 182.118 131.965 184.697ZM85.9914 248.164C95.9379 255.696 109.151 263.104 120.503 268.257C121.751 268.823 126.046 270.611 127.172 270.849C131.735 265.337 136.009 259.599 139.979 253.661C141.445 251.481 143.385 248.691 144.611 246.414C134.551 242.303 124.836 237.419 115.557 231.805C112.435 229.912 105.849 225.116 103.223 223.784L92.3949 238.989C90.3453 241.864 87.8007 245.24 85.9914 248.164ZM44.4008 145.176C49.5354 158.642 56.3762 168.542 64.5767 180.1L64.978 180.371C65.7325 180.179 69.0767 176.005 69.8926 175.108C74.4991 169.972 79.2853 164.996 84.2423 160.187C86.4758 157.995 89.0402 155.714 91.1785 153.574C85.2851 145.01 79.317 137.729 74.971 127.948C74.6023 127.118 72.7244 122.442 72.1639 122.301C65.6625 126.284 49.3992 139.494 44.4008 145.176ZM47.214 212.33C55.3788 221.981 63.9003 230.921 73.7645 238.918C75.9735 240.711 79.5031 243.639 81.9024 245.158C87.2143 237.434 93.583 228.197 99.2561 220.802C97.4488 219.273 95.3966 217.846 93.5133 216.364C90.3488 213.868 87.2594 211.282 84.2491 208.608C76.6438 201.86 71.5824 195.997 65.0173 188.538C58.7611 195.582 52.3473 204.507 47.214 212.33ZM172.523 206.049C182.171 209.565 192.128 212.207 202.267 213.939C204.511 214.247 206.759 214.522 209.011 214.765C212.064 203.459 215.924 187.327 217.372 175.549C209.009 174.37 200.992 172.743 192.977 170.091C191.763 169.69 190.315 169.174 189.091 168.869C185.67 176.98 182.152 185.052 178.535 193.08C176.623 197.303 174.294 201.882 172.523 206.049ZM76.719 119.292C80.4015 127.948 87.3456 140.97 93.4656 148.191L95.0187 150.211C101.166 144.521 107.463 138.99 113.903 133.623C117.847 130.315 122.199 126.576 126.357 123.62C121.491 117.041 117.135 110.954 113.713 103.471C113.371 102.725 112.131 99.8914 111.658 99.4125C110.246 100 108.84 100.677 107.494 101.397C97.3375 106.834 86.021 112.56 76.719 119.292ZM212.666 220.297C210.05 228.972 207.281 237.337 203.642 245.653C203.111 246.866 199.721 253.966 199.658 254.696L199.826 254.836C211.841 255.776 225.131 255.593 236.903 252.779C241.434 241.702 244.64 230.917 246.318 219.032L246.14 218.836C243.501 219.167 240.879 219.591 238.239 219.922C229.725 220.99 221.212 220.835 212.666 220.297ZM132.321 272.788C138.832 275.432 164.88 283.507 174.13 283.139C174.15 283.126 174.17 283.111 174.189 283.098C179.779 276.626 184.846 270.23 189.233 262.895C189.99 261.628 190.814 260.272 191.623 259.044C174.613 256.664 165.601 254.265 149.423 248.346C144.688 255.696 140.009 262.921 134.569 269.799C133.841 270.718 132.969 271.828 132.321 272.788ZM222.432 176.074C221.153 184.626 219.53 193.125 217.569 201.55C216.886 204.386 216.167 207.213 215.408 210.032C215.045 211.396 214.312 213.816 214.155 215.133C214.597 215.503 214.459 215.338 215.266 215.396C226.069 215.968 236.367 215.817 246.958 213.22C248.813 201.411 248.45 186.348 247.842 174.516L247.525 174.478C237.161 176.227 233.078 176.246 222.432 176.074ZM22.8754 171.308C23.6014 173.658 24.7708 176.044 25.7934 178.292C29.7906 187.075 34.8762 195.373 40.4176 203.291C41.0813 204.24 43.3605 207.502 44.1305 208.044C47.792 201.931 51.1839 197.413 55.6896 191.789C57.2869 189.797 60.2974 186.391 61.6014 184.519C59.8009 181.948 57.862 179.517 56.0288 176.889C51.8059 170.887 48.0317 164.591 44.7361 158.051C44.1471 156.865 40.9326 149.478 40.3719 149.152C34.2368 154.819 27.3607 164.408 22.8754 171.308ZM159.292 80.3804C160.665 84.0004 163.102 87.8247 165.293 91.0157L167.373 93.8583C174.662 89.0212 182.058 84.339 189.552 79.8146C193.34 77.5316 200.95 73.2597 204.305 70.8431C202.903 70.8695 201.534 70.8594 200.143 71.0326C189.679 72.2205 178.622 74.7354 168.519 77.6101C165.638 78.4298 162.067 79.3905 159.292 80.3804ZM270.959 106.085C274.741 110.866 278.349 115.679 281.625 120.812C282.694 122.489 289.797 135.007 290.055 135.185L290.289 134.974C291.678 130.846 294.976 119.625 292.818 116.043C289.57 110.653 278.887 98.7371 273.756 95.3416C272.895 100.094 272.488 101.484 270.959 106.085ZM131.502 18.6544C141.14 20.1747 150.59 22.6853 159.697 26.1452L163.34 27.4863C166.992 24.6166 170.012 23.098 174.334 21.3671C169.164 18.004 153.95 9.29307 148.156 10.0435C142.166 12.0421 136.287 14.452 131.502 18.6544ZM30.2341 103.327C30.3111 96.0869 30.5873 89.9014 31.8509 82.6896C32.0923 81.3109 33.886 75.1961 33.6347 74.5015C21.2171 87.1412 13.1139 104.273 13.2718 122.051C13.2749 122.391 13.2712 122.309 13.3084 122.585C18.3745 115.586 23.6583 109.06 30.2341 103.327ZM212.204 123.013C215.445 123.773 218.312 124.435 221.678 124.568C221.853 118.255 221.455 84.747 218.988 81.7561C218.354 83.1845 217.601 86.2851 217.19 87.8874C216.302 91.3707 215.441 94.7579 214.435 98.2154C213.033 103.02 211.566 107.805 210.037 112.572C209.136 115.361 207.843 118.948 207.115 121.72L212.204 123.013ZM188.122 67.9755C192.43 67.239 197.53 66.2422 201.816 65.8009C191.328 63.2281 171.145 62.1175 160.327 62.3937L154.457 62.5958C155.039 67.795 155.533 70.7325 157.3 75.7111C166.314 73.1099 175.283 70.4958 184.516 68.7416C185.714 68.5138 186.943 68.2847 188.122 67.9755ZM65.1687 269.01C58.9141 263.728 54.1977 260.143 48.0864 254.272C45.8326 252.075 43.6402 249.818 41.5121 247.505C40.6148 246.528 36.1435 241.449 35.3949 240.982C35.3893 242.131 35.2926 245.689 35.7228 246.414C38.3042 250.769 44.7754 257.628 48.3291 261.159C52.6891 265.548 57.3127 269.673 62.175 273.515L63.4765 271.547L65.1687 269.01ZM239.112 124.03L239.77 123.79C239.857 123.08 238.98 120.022 238.749 119.194C235.617 107.985 231.895 96.8668 226.926 86.3062C226.52 85.4413 225.439 83.0858 224.742 82.4758C225.124 89.3633 225.905 96.4193 226.331 103.382C226.719 110.577 226.85 117.783 226.732 124.987C231.484 125.096 234.484 124.827 239.112 124.03ZM197.736 60.0019C198.696 60.1245 199.828 60.3029 200.778 60.3537C188.942 54.4978 169.536 48.2347 156.464 46.0597C155.196 50.2418 154.505 53.248 154.256 57.6264C159.821 57.5728 164.801 57.3686 170.439 57.5052C180.03 57.7374 188.33 58.7764 197.736 60.0019ZM68.1761 264.741L69.6146 262.495C72.6409 258.188 75.7371 253.588 78.8645 249.403C71.1903 243.471 63.9838 237.714 57.0931 230.844C54.2145 227.974 51.5122 224.925 48.7757 221.934C48.0903 221.185 44.9921 217.485 44.415 217.095C41.1062 223.268 38.901 227.866 36.6975 234.574C43.3701 243.396 58.7149 259.027 68.1761 264.741ZM282.832 196.656C283.438 196.15 284.07 195.636 284.663 195.12C288.575 191.316 297.812 181.083 298.005 175.975C298.173 171.496 292.056 150.099 289.837 146.871C284.787 153.57 284.013 155.34 277.188 161.166C280.298 174.235 282.172 183.09 282.832 196.656ZM10.0733 188.013L11.1923 184.558C12.8415 179.603 14.6317 175.988 17.0423 171.379C14.1118 162.078 11.1606 153.151 9.75531 143.479C9.6042 142.439 9.33652 140.751 9.02248 139.767C3.39625 154.173 5.57025 173.507 10.0733 188.013ZM193.72 18.6363L194.245 18.5262C193.845 17.0332 187.057 11.8893 185.53 11.0091C181.614 8.74851 163.633 7.41261 158.509 8.09465C166.666 11.3127 173.015 14.568 180.133 19.7218C185.408 18.7558 188.402 18.5593 193.72 18.6363ZM136.936 9.23971C127.734 10.2462 118.666 12.2037 109.882 15.0801C108.226 15.6188 105.496 16.4392 103.978 17.1483C104.562 17.3613 104.422 17.2688 105.139 17.1759C111.469 16.8056 119.144 16.7481 125.417 17.4993C128.545 14.7184 131.376 12.7478 135.083 10.7589C135.538 10.5147 137.394 9.58137 137.518 9.18764L136.936 9.23971ZM44.4216 60.7715C50.7216 56.3653 61.9117 50.4473 69.2558 47.8711C71.3436 42.4748 74.3254 37.4722 77.746 32.7952C78.3445 31.977 81.5663 28.1591 81.5682 27.6775L81.3532 27.6216C70.108 33.0265 48.59 48.8057 44.1469 60.3853L44.1996 60.7519L44.4216 60.7715ZM41.0056 212.803C33.5282 202.867 26.6084 192.828 21.6269 181.449C21.2254 180.532 20.0563 177.851 19.5174 177.148C16.7766 182.15 14.8891 187.4 13.6014 192.949C12.6947 196.854 14.7637 199.616 16.2053 203.087C20.4989 212.521 26.2213 221.222 32.639 229.394L33.0499 229.488C33.3253 229.023 33.2865 229.148 33.4383 228.641C35.6595 222.842 38.0822 218.322 41.0056 212.803ZM218.863 282.519C224.016 275.953 228.402 270.408 232.203 262.923C232.722 261.899 234.117 259.709 234.167 258.629C233.706 258.556 233.885 258.525 233.625 258.594C221.234 260.337 209.457 261.146 196.946 259.58C192.647 267.203 188.137 274.486 182.554 281.278C182.058 281.88 180.619 283.408 180.529 284.058L181.021 284.144C194.956 285.469 205.114 285.226 218.863 282.519ZM292.909 141.675C295.947 148.887 300.242 159.438 301.753 167.074L302.027 167.991L302.263 167.982C302.818 166.992 303.153 164.869 303.468 163.651C305.816 154.509 305.355 144.029 302.884 134.944C302.352 132.988 299.457 125.098 297.839 123.939C297.574 129.715 295.158 136.391 292.909 141.675ZM244.728 122.618C247.098 121.74 249.257 120.833 251.487 119.639C252.598 118.955 253.751 118.274 254.796 117.503C253.447 114.255 251.065 110.377 249.237 107.34C244.544 99.5425 239.293 91.7973 233.297 84.901C232.636 84.1411 231.079 82.354 230.344 81.8422C230.968 83.706 231.875 85.6209 232.641 87.4482C237.401 98.8195 241.745 110.663 244.728 122.618ZM197.983 53.8332C199.454 54.4593 201.057 55.1073 202.485 55.7947C200.655 54.0548 198.263 52.3471 196.209 50.8408C186.458 43.693 175.832 37.9798 164.829 32.9473C161.868 36.0309 160.383 37.8791 158.36 41.7161C171.956 44.4069 185.233 48.4672 197.983 53.8332ZM114.534 290.366C121.242 292.767 148.147 302.561 153.737 298.701C159.165 296.19 165.006 292.049 169.396 287.974C158.238 286.287 147.268 283.563 136.633 279.841C134.532 279.118 130.754 277.904 128.792 277.016C123.443 282.595 120.702 285.551 114.534 290.366ZM273.936 89.5539C280.267 94.6337 286.014 99.9558 291.064 106.284C291.678 107.052 292.675 108.379 293.377 109.018C293.121 104.701 291.274 94.407 289.174 90.7975C286.495 86.1943 276.976 79.5953 272.07 77.2807C273.122 81.9723 273.595 84.6882 273.936 89.5539ZM213.144 288.748C200.362 290.452 188.787 290.334 175.961 288.795C170.032 294.572 167.379 296.672 160.327 301.255C171.209 302.49 185.242 301.791 195.805 298.946C201.989 297.169 208.473 293.144 213.144 288.748ZM168.702 29.7673C181.144 35.5733 188.925 40.1429 200.261 47.938C202.466 49.5518 204.657 51.1816 206.835 52.8273C200.541 43.5744 192.898 35.2839 184.148 28.2227C183.389 27.6199 180.38 25.3018 179.604 24.9444C175.718 25.9331 172.033 27.5639 168.702 29.7673ZM258.772 114.52C259.793 113.467 260.784 112.387 261.742 111.279C262.999 109.564 264.042 108.272 264.976 106.351C258.934 98.2855 248.343 88.9418 240.275 82.831C239.096 81.9368 235.79 79.4774 234.521 79.0099C240.815 86.585 246.617 94.5431 251.894 102.837C254.378 106.782 256.421 110.644 258.772 114.52ZM139.418 303.299C130.255 301.141 122.448 298.809 113.655 295.424C112.693 295.052 109.91 293.983 109.069 293.991C107.123 294.934 105.57 295.605 103.567 296.416C110.56 299.14 126.27 304.005 133.635 303.561L139.418 303.299ZM267.565 100.332C268.407 96.8754 268.834 95.0363 268.926 91.4142C260.099 84.9785 250.527 79.5133 240.304 75.4775C239.538 75.1754 236.916 74.1866 236.203 74.1117C238.694 76.2049 241.469 77.9698 244.032 79.9774C249.185 84.0159 254.158 88.4483 258.855 92.9884C260.106 94.198 266.264 101.08 267.01 101.368C267.541 100.986 267.305 101.171 267.565 100.332ZM103.006 291.27C92.9084 287.509 77.88 278.188 69.3828 272.018C68.4696 273.382 67.155 275.217 66.3505 276.588C74.0291 282.377 84.9387 288.789 94.0307 292.515C94.9859 292.907 98.0135 292.481 99.1371 292.264C100.475 291.947 101.685 291.651 103.006 291.27ZM238.561 39.1182C234.117 35.8461 229.835 33.2008 224.746 30.9401C224.783 38.046 224.584 44.8271 223.836 51.9093C223.701 53.2045 223.768 53.5664 225.085 53.8603C226.135 53.3999 229.964 48.4175 231.005 47.1367C233.441 44.3675 235.858 41.6462 238.561 39.1182ZM270.168 71.3747C274.867 73.5927 279.302 76.3155 283.394 79.4854C283.678 79.7061 283.602 79.6394 283.996 79.7834C279.014 71.8457 272.611 60.728 263.216 58.0696C266.242 63.0749 267.926 65.89 270.168 71.3747ZM283.103 203.044C282.753 211.837 282.239 220.133 280.232 228.742C280.007 229.706 279.095 231.958 279.591 232.713C290.493 223.333 298.379 209.546 299.464 195.208C299.566 193.857 299.796 186.242 299.223 185.521C293.474 193.897 290.838 196.475 283.103 203.044ZM263.817 53.6837L264.263 53.8125C263.933 52.292 249.672 39.2602 247.625 38.5611C246.901 38.9759 246.681 38.9402 246.337 39.5538C246.873 40.3015 249.749 42.6729 250.606 43.506C253.62 46.4351 256.843 49.5934 259.38 52.9386C261.009 53.1176 262.205 53.3523 263.817 53.6837ZM266.065 74.3632C258.883 71.086 243.538 67.4593 235.678 68.3215C237.461 69.2744 239.407 69.9732 241.272 70.7796C244.157 72.0481 247.024 73.3587 249.869 74.7111C256.871 78.052 262.385 81.5726 268.764 85.8234C268.27 82.5375 267.194 77.4724 266.065 74.3632ZM247.477 169.06C246.409 154.961 244.034 143.237 241.264 129.45C240.89 129.247 241.056 129.267 240.802 129.266C235.565 130.163 232.055 130.468 226.708 130.585C226.264 138.75 225.89 146.703 225.096 154.847C224.796 158.016 224.462 161.183 224.094 164.344C223.865 166.25 223.443 168.892 223.379 170.745C225.78 170.984 228.472 171.005 230.898 170.973C236.479 170.928 242.038 170.286 247.477 169.06ZM30.6596 239.267L31.2997 235.631C28.2803 231.508 25.3424 227.33 22.4874 223.098C21.6813 221.902 18.5383 216.768 17.7679 216.271C18.9191 219.387 28.445 238.421 30.6087 239.428L30.6596 239.267ZM254.433 57.2436C248.087 57.556 243.192 58.6154 237.246 60.8849C236.216 61.2779 234.567 61.7463 233.758 62.3935L233.815 62.8856C235.715 63.4131 244.697 63.9586 247.654 64.4652C254.197 65.6064 257.44 66.4462 263.76 68.5766C261.652 64.1193 259.854 61.3565 257.11 57.2931L254.433 57.2436ZM276.875 240.62C275.832 243.368 274.695 246.079 273.649 248.822L273.844 249.091C277.032 245.042 280.468 240.054 283.224 235.747L283.055 235.48C281.085 237.296 279.023 239.011 276.875 240.62ZM157.199 305.9L158.122 305.808C157.309 305.457 153.831 305.324 152.734 305.268C152.075 305.386 151.513 305.352 151.148 305.73C152.513 306.038 155.697 305.95 157.199 305.9ZM221.38 287.449C219.554 289.363 217.809 290.962 215.896 292.771L216.068 292.993C217.918 292.167 232.682 285.209 233.106 284.232L232.988 284.163C228.634 285.646 225.627 286.252 221.38 287.449ZM206.84 75.3538C195.848 81.5283 180.969 90.2211 170.686 97.6631C172.059 99.6361 175.123 102.353 176.969 104.042C178.565 105.396 181.631 108.115 183.33 109.16C187.472 103.518 191.958 98.077 196.235 92.5269C200.148 87.4519 204.069 82.3687 207.85 77.1955C208.077 76.8831 208.075 76.6548 208.064 76.2957C207.787 75.7611 207.469 75.4549 206.84 75.3538ZM223.663 23.3846L224.225 26.0744C228.722 27.9125 232.903 30.1546 236.973 32.7864C238.587 33.8299 240.078 35.1107 241.777 36.0217C241.924 36.0993 242.875 35.6608 243.046 35.5754L243.109 35.1152C240.47 32.2356 227.611 25.0815 223.663 23.3846ZM252.281 212.039C253.471 211.706 255.019 211.312 256.163 210.92C264.427 208.285 270.64 205.421 277.861 200.47C277.857 192.4 276.823 184.093 275.473 176.143C275.213 174.6 273.4 165.075 272.757 164.292C265.728 168.464 261.046 171.037 252.928 173.088C253.862 183.48 253.696 202.078 252.281 212.039ZM218.236 23.3121C217.857 22.2916 217.529 21.3998 217.072 20.4038C212.134 18.2874 199.909 13.359 194.551 12.521C196.856 14.6859 199.105 16.9067 201.298 19.1809C205.007 19.7009 208.038 20.241 211.699 21.247C213.827 21.8318 216.228 22.7867 218.236 23.3121ZM204.955 24.3465C207.504 28.2318 209.733 31.6601 211.699 35.8773C213.962 40.737 215.751 45.6051 217.636 50.6057C217.857 51.1945 217.925 51.195 218.391 51.5095L218.714 51.3277L218.87 50.6289C219.679 42.6746 220.186 36.5062 219.436 28.5171C214.122 26.5962 210.608 25.35 204.955 24.3465ZM68.4527 78.0105C78.8167 73.2392 89.3789 69.2006 100.393 66.179C101.741 65.8091 103.189 65.4444 104.516 65.0285C104.655 60.3879 105.004 56.2373 106.03 51.6763C106.229 50.7905 107.993 44.2504 107.928 43.9578L107.876 43.9056C97.0506 44.8283 83.6147 48.2943 73.2847 51.4844C70.4039 59.1606 68.7941 66.1957 68.273 74.3996C68.2165 75.2847 68.0219 77.1479 68.2631 77.8833L68.4527 78.0105ZM185.515 23.6344C193.994 30.532 203.17 39.4252 209.628 48.2147L212.471 51.6371C210.183 43.4255 204.406 29.6316 198.527 23.4315C196.124 23.3076 194.007 23.192 191.599 23.2389C189.568 23.3073 187.538 23.4392 185.515 23.6344ZM253.37 52.7843C251.675 50.5538 244.763 43.2889 242.484 42.0486C240.465 43.8787 227.956 56.4333 230.023 58.0173C231.792 57.9482 235.897 56.3361 237.743 55.6794C242.72 54.1845 248.161 53.0578 253.37 52.7843ZM251.468 217.584C250.864 225.721 248.364 234.011 246.272 241.866C245.882 243.331 243.111 250.634 243.186 251.43C254.914 248.37 262.507 245.403 272.512 238.415C275.29 229.755 277.006 220.09 277.761 211.043C277.837 210.116 278.045 207.452 277.73 206.645C268.416 212.356 261.888 214.722 251.468 217.584ZM72.1742 267.87C84.0495 276.493 94.7736 282.932 108.613 288.223C109.532 287.586 110.618 286.795 111.543 286.199C115.687 283.395 120.338 278.778 123.601 275.049C113.76 270.746 106.165 267.241 96.9181 261.574C93.7457 259.601 90.6145 257.566 87.5264 255.468C86.5202 254.795 83.8303 252.88 82.8659 252.396C79.2335 257.508 75.6693 262.667 72.1742 267.87ZM212.969 79.403C210.958 81.0932 202.422 92.3985 200.38 95.0365L192.115 105.725C190.689 107.572 188.64 110.065 187.407 111.952C189.211 113.094 190.827 114.105 192.703 115.148C195.277 116.634 199.629 118.925 202.442 119.811C204.528 113.922 214.013 84.6607 213.481 79.9445C213.304 79.7442 213.173 79.5663 212.969 79.403ZM126.744 22.6582C121.808 27.6524 118.699 32.0026 115.725 38.4217C127.835 38.1824 136.704 38.2842 148.831 40.0603L153.031 40.6346C155.074 36.6095 156.489 34.4046 159.618 31.0669C153.464 28.4472 133.282 22.7331 126.744 22.6582ZM268.567 110.803C266.1 114.581 264.668 116.338 261.243 119.438C264.071 125.371 266.971 131.431 269.391 137.538C271.72 143.413 273.746 149.594 275.683 155.609L278.021 153.401C281.844 149.495 284.715 145.783 287.304 140.92C283.326 132.029 277.518 122.677 271.843 114.753C271.121 113.745 269.514 111.471 268.567 110.803ZM269.964 245.586C259.843 252.075 252.091 254.53 240.562 257.361C237.27 264.395 233.675 271.164 229.137 277.517C228.685 278.152 226.719 280.398 226.804 281.08C238.701 278.651 256.25 270.473 262.743 260.225C264.228 257.88 269.873 248.041 269.964 245.586ZM146.613 63.034C134.801 64.1066 121.193 65.9063 109.709 68.8981C110.331 74.6509 111.611 87.2535 114.551 92.1642C114.711 92.1885 114.871 92.2126 115.032 92.2367C127.781 86.4275 138.791 81.8781 152.123 77.371C150.36 71.5298 149.75 68.9906 148.998 62.8916L146.613 63.034ZM110.468 21.5162C104.876 21.7593 96.2368 22.4889 90.9937 24.8771C90.18 25.2476 88.2358 27.295 87.5723 28.007C82.6468 33.3316 78.6098 39.3901 75.6109 45.9575C78.5313 45.0181 81.4794 44.1646 84.4514 43.3976C92.8215 41.2908 101.315 39.6907 109.884 38.6061C113.163 31.5426 115.891 27.6709 120.905 21.897C118.511 21.5805 112.942 21.2326 110.468 21.5162ZM118.562 43.2683C116.896 43.3474 115.239 43.4159 113.576 43.5596C111.586 49.8679 109.591 57.0536 109.772 63.744C119.875 61.8399 126.695 60.1665 137.334 58.9898C140.823 58.4756 145.219 58.1675 148.793 57.9192C149.346 52.59 149.673 50.2573 151.135 45.1773C143.223 43.6872 126.658 42.5187 118.562 43.2683ZM257.145 122.489C252.928 125.066 250.722 126.106 245.985 127.842C246.836 132.682 248.084 137.786 249.016 142.725C250.523 150.984 251.699 159.299 252.546 167.649C254.676 167.096 256.747 166.47 258.778 165.626C262.641 164.135 268.191 161.327 271.388 158.629C268.425 148.187 264.666 137.98 260.139 128.097C259.614 126.929 258.129 123.41 257.374 122.548L257.145 122.489ZM66.5359 53.9281C56.7146 57.8845 49.28 62.9609 40.7832 68.9846C37.3028 78.3978 35.4693 88.3235 35.3602 98.3398L35.7109 98.4564C44.2943 91.2212 52.8278 85.9422 62.8285 80.7741C63.0043 74.667 63.4161 69.008 64.6926 63.0123C64.9463 61.8206 66.9615 54.2508 66.9025 53.9584L66.5359 53.9281ZM30.2789 109.603C23.3427 116.403 18.2383 122.527 13.398 130.983C13.7328 141.818 17.3358 155.165 20.5667 165.433L20.8479 165.648L21.0762 165.319C26.077 157.945 32.0754 150.364 38.443 144.089C35.3352 135.094 32.5797 126.276 31.2838 116.821C31.1294 115.694 30.7115 110.242 30.2789 109.603ZM74.8879 114.24C75.6675 114.255 81.2728 110.466 82.3437 109.812C88.2461 106.239 94.2503 102.83 100.349 99.5907C103.301 98.0213 106.986 96.2889 109.79 94.6776C107.717 87.908 105.838 81.8082 104.963 74.7746C104.779 73.2967 104.799 71.8196 104.539 70.4078C104.18 70.2507 104.342 70.2613 104.065 70.2895C92.0653 73.1882 79.3461 78.2254 68.2948 83.5537C68.6332 92.9934 71.4648 105.46 74.8879 114.24ZM205.283 126.726C201.521 137.849 195.791 153.202 191.046 164.066C197.545 166.125 202.374 167.666 209.138 168.972C212.125 169.54 215.132 169.996 218.152 170.34C219.655 158.752 221.562 141.92 221.455 130.167C215.489 129.574 210.938 128.419 205.283 126.726ZM153.775 82.0995C144.319 85.2169 135.025 88.7934 125.929 92.8159C123.273 93.9855 118.857 95.8558 116.46 97.2543C120.05 105.241 123.357 111.209 128.692 118.326L130.37 120.45C134.515 117.436 138.721 114.021 142.849 110.907C149.376 105.992 156.047 101.264 162.852 96.7293C160.066 92.7991 157.298 88.9371 155.303 84.5424C155.001 83.8743 154.496 82.561 153.978 82.1328L153.775 82.0995ZM184.043 116.301C181.813 118.936 179.619 121.862 177.535 124.626C171.705 132.357 165.383 139.983 159.751 147.843C165.827 151.808 172.514 156.099 179.145 159.111C181.57 160.187 183.971 161.284 186.46 162.216C191.247 150.142 196.509 137.336 200.624 125.044C193.915 122.155 190.221 120.308 184.043 116.301ZM165.89 100.565C154.855 108.143 144.062 116.059 133.53 124.302C139.085 130.747 144.646 136.322 151.338 141.622C152.874 142.839 154.057 143.767 155.69 144.836C163.874 134.786 171.731 123.742 179.884 113.501C176.291 110.496 172.787 107.796 169.579 104.358C169.026 103.765 166.277 100.795 165.89 100.565ZM63.0535 86.1926C54.3409 90.1626 42.2585 99.0661 35.171 105.306C35.9246 117.182 38.1364 128.888 42.5537 140.015C48.6384 134.058 55.1184 128.504 61.9507 123.391C64.6869 121.327 67.635 119.455 70.3192 117.441C67.9128 110.146 65.8794 104.067 64.4634 96.458C63.9523 93.7122 63.6013 88.4468 63.0535 86.1926Z" fill="white"/>
<path d="M419.397 134.576C402.874 134.576 390.079 130.315 381.01 121.794C372.065 113.151 367.593 101.038 367.593 85.4567V2.5564H391.631V84.1785C391.631 93.4302 393.868 100.612 398.34 105.725C402.936 110.716 409.955 113.212 419.397 113.212C428.838 113.212 435.795 110.716 440.267 105.725C444.864 100.612 447.162 93.4302 447.162 84.1785V2.5564H471.201V85.4567C471.201 101.038 466.666 113.151 457.597 121.794C448.653 130.315 435.919 134.576 419.397 134.576Z" fill="white"/>
<path d="M493.78 37.0677H514.092L515.21 49.4845C518.067 44.3717 522.167 40.598 527.509 38.1633C532.975 35.7287 538.503 34.5113 544.093 34.5113C549.311 34.5113 553.97 35.3635 558.069 37.0677C562.169 38.6503 565.647 40.9632 568.504 44.0065C571.362 47.0499 573.536 50.641 575.026 54.7799C576.641 58.9188 577.449 63.4838 577.449 68.4749V132.02H554.156V73.7703C554.156 68.1706 552.789 63.7882 550.056 60.6231C547.448 57.3363 543.41 55.6929 537.944 55.6929C534.341 55.6929 531.173 56.4233 528.44 57.8841C525.832 59.3449 523.658 61.3535 521.918 63.9099C520.303 66.3446 519.061 69.2662 518.191 72.6747C517.446 75.9615 517.073 79.4309 517.073 83.0829V132.02H493.78V37.0677Z" fill="white"/>
<path d="M623.633 37.0677V132.02H599.968V37.0677H623.633ZM624.379 0V23.5554H599.222V0H624.379Z" fill="white"/>
<path d="M686.327 133.298C676.513 133.298 668.935 130.924 663.593 126.176C658.251 121.429 655.58 114.49 655.58 105.36V55.8755H637.132V37.0677H655.58V12.9646L678.873 7.30399V37.0677H702.352V55.8755H678.873V102.073C678.873 105.725 679.991 108.403 682.227 110.108C684.463 111.69 687.445 112.481 691.172 112.481C693.656 112.481 695.768 112.36 697.507 112.116C699.371 111.873 701.048 111.568 702.539 111.203V130.924C700.054 131.898 697.445 132.507 694.712 132.75C691.979 133.115 689.184 133.298 686.327 133.298Z" fill="white"/>
<path d="M461.138 181.98V203.345H392.936V233.474H452.752V254.655H392.936V290.079H461.138V311.444H368.897V181.98H461.138Z" fill="white"/>
<path d="M518.931 314C510.856 314 503.899 312.539 498.06 309.618C492.222 306.696 487.625 303.166 484.271 299.027C480.544 294.523 477.749 289.288 475.885 283.323C474.022 277.358 473.09 270.906 473.09 263.968C473.09 257.029 474.022 250.577 475.885 244.612C477.749 238.525 480.606 233.291 484.457 228.909C487.936 224.891 492.532 221.422 498.247 218.5C503.961 215.457 510.856 213.935 518.931 213.935C524.894 213.935 530.36 214.788 535.329 216.492C540.299 218.196 544.647 220.631 548.373 223.796C552.1 226.839 555.02 230.613 557.132 235.117C559.368 239.499 560.61 244.369 560.858 249.725H538.311C537.814 244.612 535.95 240.656 532.72 237.856C529.49 235.056 525.08 233.656 519.49 233.656C515.639 233.656 512.409 234.265 509.8 235.482C507.316 236.699 505.266 238.16 503.651 239.865C500.793 243.03 498.93 246.742 498.06 251.003C497.191 255.142 496.756 259.464 496.756 263.968C496.756 268.472 497.191 272.854 498.06 277.115C498.93 281.254 500.793 284.845 503.651 287.888C505.39 289.592 507.502 291.114 509.986 292.453C512.471 293.671 515.639 294.279 519.49 294.279C525.08 294.279 529.49 292.879 532.72 290.079C535.95 287.158 537.814 283.262 538.311 278.393H560.858C560.61 283.749 559.306 288.619 556.945 293.001C554.709 297.262 551.728 300.975 548.001 304.14C544.274 307.305 539.926 309.739 534.957 311.444C529.987 313.148 524.646 314 518.931 314Z" fill="white"/>
<path d="M619.508 314C611.308 314 604.289 312.6 598.451 309.8C592.736 306.879 588.14 303.47 584.661 299.575C580.686 295.314 577.642 290.445 575.53 284.967C573.418 279.367 572.362 272.367 572.362 263.968C572.362 255.568 573.418 248.629 575.53 243.151C577.642 237.552 580.686 232.621 584.661 228.361C588.14 224.465 592.736 221.118 598.451 218.318C604.289 215.396 611.308 213.935 619.508 213.935C627.707 213.935 634.664 215.396 640.378 218.318C646.217 221.118 650.876 224.465 654.354 228.361C658.329 232.621 661.373 237.552 663.485 243.151C665.597 248.629 666.653 255.568 666.653 263.968C666.653 272.367 665.597 279.367 663.485 284.967C661.373 290.445 658.329 295.314 654.354 299.575C650.876 303.47 646.217 306.879 640.378 309.8C634.664 312.6 627.707 314 619.508 314ZM619.508 294.097C623.11 294.097 626.216 293.549 628.825 292.453C631.434 291.236 633.608 289.775 635.347 288.071C638.453 285.028 640.502 281.436 641.496 277.297C642.49 273.037 642.987 268.594 642.987 263.968C642.987 259.342 642.49 254.959 641.496 250.82C640.502 246.56 638.453 242.908 635.347 239.865C633.608 238.16 631.434 236.76 628.825 235.665C626.216 234.447 623.11 233.839 619.508 233.839C615.905 233.839 612.799 234.447 610.19 235.665C607.581 236.76 605.407 238.16 603.668 239.865C600.562 242.908 598.513 246.56 597.519 250.82C596.525 254.959 596.028 259.342 596.028 263.968C596.028 268.594 596.525 273.037 597.519 277.297C598.513 281.436 600.562 285.028 603.668 288.071C605.407 289.775 607.581 291.236 610.19 292.453C612.799 293.549 615.905 294.097 619.508 294.097Z" fill="white"/>
<path d="M684.682 216.492H704.993L706.111 228.909C708.968 223.796 713.068 220.022 718.41 217.587C723.876 215.153 729.404 213.935 734.995 213.935C740.212 213.935 744.871 214.788 748.97 216.492C753.07 218.074 756.548 220.387 759.406 223.431C762.263 226.474 764.437 230.065 765.928 234.204C767.543 238.343 768.35 242.908 768.35 247.899V311.444H745.057V253.194C745.057 247.595 743.691 243.212 740.958 240.047C738.349 236.76 734.311 235.117 728.845 235.117C725.243 235.117 722.075 235.847 719.342 237.308C716.733 238.769 714.559 240.778 712.82 243.334C711.205 245.769 709.962 248.69 709.093 252.099C708.347 255.385 707.975 258.855 707.975 262.507V311.444H684.682V216.492Z" fill="white"/>
<path d="M832.61 314C824.411 314 817.392 312.6 811.553 309.8C805.839 306.879 801.242 303.47 797.764 299.575C793.788 295.314 790.745 290.445 788.633 284.967C786.521 279.367 785.465 272.367 785.465 263.968C785.465 255.568 786.521 248.629 788.633 243.151C790.745 237.552 793.788 232.621 797.764 228.361C801.242 224.465 805.839 221.118 811.553 218.318C817.392 215.396 824.411 213.935 832.61 213.935C840.809 213.935 847.766 215.396 853.481 218.318C859.319 221.118 863.978 224.465 867.456 228.361C871.432 232.621 874.475 237.552 876.587 243.151C878.699 248.629 879.755 255.568 879.755 263.968C879.755 272.367 878.699 279.367 876.587 284.967C874.475 290.445 871.432 295.314 867.456 299.575C863.978 303.47 859.319 306.879 853.481 309.8C847.766 312.6 840.809 314 832.61 314ZM832.61 294.097C836.213 294.097 839.318 293.549 841.927 292.453C844.536 291.236 846.71 289.775 848.449 288.071C851.555 285.028 853.605 281.436 854.599 277.297C855.592 273.037 856.089 268.594 856.089 263.968C856.089 259.342 855.592 254.959 854.599 250.82C853.605 246.56 851.555 242.908 848.449 239.865C846.71 238.16 844.536 236.76 841.927 235.665C839.318 234.447 836.213 233.839 832.61 233.839C829.007 233.839 825.902 234.447 823.293 235.665C820.684 236.76 818.51 238.16 816.771 239.865C813.665 242.908 811.615 246.56 810.621 250.82C809.628 254.959 809.131 259.342 809.131 263.968C809.131 268.594 809.628 273.037 810.621 277.297C811.615 281.436 813.665 285.028 816.771 288.071C818.51 289.775 820.684 291.236 823.293 292.453C825.902 293.549 829.007 294.097 832.61 294.097Z" fill="white"/>
<path d="M897.784 216.492H918.096L919.027 229.091C921.76 224.587 925.425 220.935 930.022 218.135C934.618 215.335 940.146 213.935 946.606 213.935C953.439 213.935 959.091 215.335 963.564 218.135C968.16 220.935 971.701 224.709 974.185 229.456C977.043 224.465 980.956 220.631 985.925 217.953C991.018 215.274 996.857 213.935 1003.44 213.935C1013.88 213.935 1021.7 217.04 1026.92 223.248C1032.26 229.335 1034.93 237.308 1034.93 247.169V311.444H1011.83V252.647C1011.83 246.803 1010.71 242.238 1008.47 238.952C1006.24 235.543 1002.32 233.839 996.733 233.839C993.503 233.839 990.708 234.508 988.347 235.847C985.987 237.065 983.999 238.83 982.384 241.143C980.894 243.334 979.776 245.951 979.03 248.995C978.285 251.916 977.912 255.081 977.912 258.49V311.444H954.992V252.647C954.992 246.803 953.874 242.238 951.638 238.952C949.401 235.543 945.488 233.839 939.898 233.839C936.668 233.839 933.873 234.508 931.512 235.847C929.152 237.065 927.164 238.83 925.549 241.143C923.934 243.334 922.754 245.951 922.009 248.995C921.263 251.916 920.891 255.081 920.891 258.49V311.444H897.784V216.492Z" fill="white"/>
<path d="M1081.14 216.492V311.444H1057.47V216.492H1081.14ZM1081.88 179.424V202.979H1056.73V179.424H1081.88Z" fill="white"/>
<path d="M1145.14 314C1137.06 314 1130.1 312.539 1124.27 309.618C1118.43 306.696 1113.83 303.166 1110.48 299.027C1106.75 294.523 1103.95 289.288 1102.09 283.323C1100.23 277.358 1099.3 270.906 1099.3 263.968C1099.3 257.029 1100.23 250.577 1102.09 244.612C1103.95 238.525 1106.81 233.291 1110.66 228.909C1114.14 224.891 1118.74 221.422 1124.45 218.5C1130.17 215.457 1137.06 213.935 1145.14 213.935C1151.1 213.935 1156.57 214.788 1161.53 216.492C1166.5 218.196 1170.85 220.631 1174.58 223.796C1178.31 226.839 1181.22 230.613 1183.34 235.117C1185.57 239.499 1186.82 244.369 1187.06 249.725H1164.52C1164.02 244.612 1162.16 240.656 1158.93 237.856C1155.7 235.056 1151.29 233.656 1145.7 233.656C1141.84 233.656 1138.61 234.265 1136.01 235.482C1133.52 236.699 1131.47 238.16 1129.86 239.865C1127 243.03 1125.14 246.742 1124.27 251.003C1123.4 255.142 1122.96 259.464 1122.96 263.968C1122.96 268.472 1123.4 272.854 1124.27 277.115C1125.14 281.254 1127 284.845 1129.86 287.888C1131.59 289.592 1133.71 291.114 1136.19 292.453C1138.68 293.671 1141.84 294.279 1145.7 294.279C1151.29 294.279 1155.7 292.879 1158.93 290.079C1162.16 287.158 1164.02 283.262 1164.52 278.393H1187.06C1186.82 283.749 1185.51 288.619 1183.15 293.001C1180.91 297.262 1177.93 300.975 1174.21 304.14C1170.48 307.305 1166.13 309.739 1161.16 311.444C1156.19 313.148 1150.85 314 1145.14 314Z" fill="white"/>
<path d="M1238.45 314C1232.61 314 1227.14 313.209 1222.05 311.626C1216.95 310.044 1212.54 307.852 1208.82 305.053C1205.09 302.131 1202.11 298.662 1199.87 294.644C1197.76 290.505 1196.7 285.941 1196.7 280.949H1219.07C1219.07 286.306 1220.93 290.262 1224.66 292.818C1228.51 295.253 1233.35 296.47 1239.19 296.47C1241.55 296.47 1243.91 296.227 1246.27 295.74C1248.63 295.253 1250.68 294.523 1252.42 293.549C1254.16 292.575 1255.59 291.297 1256.71 289.714C1257.82 288.01 1258.38 286.062 1258.38 283.871C1258.38 281.315 1257.51 279.184 1255.78 277.48C1254.04 275.654 1251.55 274.498 1248.32 274.011L1225.03 270.906C1221.05 270.42 1217.45 269.385 1214.22 267.802C1211.11 266.22 1208.44 264.333 1206.21 262.142C1204.1 259.829 1202.48 257.333 1201.36 254.655C1200.24 251.855 1199.69 248.995 1199.69 246.073C1199.69 241.204 1200.68 236.821 1202.67 232.926C1204.78 228.909 1207.64 225.5 1211.24 222.7C1214.84 219.9 1219 217.77 1223.72 216.309C1228.57 214.727 1233.72 213.935 1239.19 213.935C1244.41 213.935 1249.38 214.666 1254.1 216.127C1258.82 217.587 1262.92 219.718 1266.4 222.518C1270 225.196 1272.79 228.422 1274.78 232.195C1276.89 235.969 1277.95 240.108 1277.95 244.612H1255.78C1255.78 240.23 1254.16 236.882 1250.93 234.569C1247.82 232.256 1243.91 231.1 1239.19 231.1C1234.1 231.1 1229.87 232.074 1226.52 234.021C1223.29 235.969 1221.67 238.891 1221.67 242.786C1221.67 246.195 1222.85 248.568 1225.21 249.908C1227.7 251.247 1230.25 252.099 1232.85 252.464L1253.54 255.203C1261.24 256.177 1267.58 259.038 1272.55 263.785C1277.52 268.533 1280 274.68 1280 282.228C1280 287.584 1278.88 292.271 1276.65 296.288C1274.41 300.183 1271.37 303.47 1267.51 306.148C1263.66 308.705 1259.25 310.652 1254.28 311.991C1249.32 313.33 1244.04 314 1238.45 314Z" fill="white"/>
</svg>
