<svg width="1236" height="312" viewBox="0 0 1236 312" fill="none" xmlns="http://www.w3.org/2000/svg">
<path d="M448.5 8.04543H471.228V90.0074C471.228 98.9918 469.104 106.894 464.857 113.714C460.65 120.534 454.728 125.863 447.09 129.702C439.453 133.5 430.529 135.399 420.319 135.399C410.067 135.399 401.123 133.5 393.485 129.702C385.848 125.863 379.926 120.534 375.719 113.714C371.512 106.894 369.409 98.9918 369.409 90.0074V8.04543H392.138V88.1085C392.138 93.3357 393.281 97.9913 395.568 102.075C397.896 106.159 401.164 109.365 405.37 111.692C409.577 113.979 414.56 115.123 420.319 115.123C426.077 115.123 431.06 113.979 435.267 111.692C439.514 109.365 442.782 106.159 445.069 102.075C447.356 97.9913 448.5 93.3357 448.5 88.1085V8.04543Z" fill="white"/>
<path d="M513.679 78.3686V133.5H491.502V39.4091H512.699V55.3972H513.801C515.966 50.1291 519.417 45.9432 524.155 42.8395C528.933 39.7358 534.835 38.1839 541.86 38.1839C548.354 38.1839 554.01 39.5724 558.83 42.3494C563.69 45.1264 567.447 49.149 570.102 54.4171C572.798 59.6852 574.125 66.0763 574.084 73.5905V133.5H551.907V77.0209C551.907 70.7319 550.273 65.8109 547.006 62.258C543.779 58.7051 539.307 56.9286 533.589 56.9286C529.709 56.9286 526.258 57.7862 523.236 59.5014C520.254 61.1758 517.906 63.6056 516.191 66.791C514.516 69.9764 513.679 73.8356 513.679 78.3686Z" fill="white"/>
<path d="M593.179 133.5V39.4091H615.356V133.5H593.179ZM604.328 26.055C600.816 26.055 597.794 24.8911 595.262 22.5634C592.729 20.1948 591.463 17.3565 591.463 14.0486C591.463 10.6999 592.729 7.86166 595.262 5.53389C597.794 3.16528 600.816 1.98098 604.328 1.98098C607.882 1.98098 610.904 3.16528 613.395 5.53389C615.928 7.86166 617.194 10.6999 617.194 14.0486C617.194 17.3565 615.928 20.1948 613.395 22.5634C610.904 24.8911 607.882 26.055 604.328 26.055Z" fill="white"/>
<path d="M681.699 39.4091V56.5611H627.604V39.4091H681.699ZM640.959 16.8665H663.137V105.199C663.137 108.18 663.586 110.467 664.484 112.06C665.424 113.612 666.649 114.674 668.16 115.245C669.671 115.817 671.346 116.103 673.184 116.103C674.572 116.103 675.838 116.001 676.982 115.797C678.166 115.592 679.065 115.409 679.678 115.245L683.415 132.581C682.23 132.99 680.535 133.439 678.33 133.929C676.165 134.419 673.51 134.705 670.366 134.786C664.811 134.95 659.808 134.113 655.356 132.275C650.904 130.396 647.372 127.497 644.758 123.576C642.185 119.656 640.919 114.755 640.959 108.875V16.8665Z" fill="white"/>
<path d="M369.409 303V177.545H451.011V196.596H392.138V230.655H446.784V249.706H392.138V283.949H451.501V303H369.409Z" fill="white"/>
<path d="M510.815 304.838C501.421 304.838 493.355 302.775 486.616 298.651C479.918 294.526 474.751 288.829 471.117 281.56C467.522 274.25 465.725 265.837 465.725 256.322C465.725 246.766 467.563 238.333 471.239 231.023C474.915 223.672 480.102 217.955 486.8 213.871C493.539 209.746 501.503 207.684 510.692 207.684C518.33 207.684 525.089 209.093 530.97 211.911C536.892 214.688 541.61 218.629 545.122 223.733C548.635 228.797 550.636 234.719 551.126 241.498H529.929C529.071 236.965 527.029 233.187 523.803 230.165C520.617 227.102 516.349 225.571 510.999 225.571C506.465 225.571 502.483 226.796 499.052 229.246C495.622 231.656 492.947 235.127 491.027 239.66C489.148 244.193 488.209 249.625 488.209 255.955C488.209 262.366 489.148 267.879 491.027 272.494C492.906 277.068 495.54 280.6 498.93 283.091C502.361 285.542 506.384 286.767 510.999 286.767C514.266 286.767 517.186 286.154 519.759 284.929C522.373 283.663 524.558 281.846 526.314 279.477C528.071 277.109 529.275 274.23 529.929 270.84H551.126C550.595 277.497 548.635 283.398 545.245 288.543C541.855 293.648 537.24 297.65 531.399 300.55C525.559 303.408 518.697 304.838 510.815 304.838Z" fill="white"/>
<path d="M606.932 304.838C597.743 304.838 589.779 302.816 583.04 298.773C576.301 294.73 571.073 289.074 567.356 281.805C563.68 274.536 561.843 266.042 561.843 256.322C561.843 246.603 563.68 238.088 567.356 230.778C571.073 223.468 576.301 217.791 583.04 213.748C589.779 209.705 597.743 207.684 606.932 207.684C616.122 207.684 624.086 209.705 630.825 213.748C637.564 217.791 642.771 223.468 646.447 230.778C650.163 238.088 652.022 246.603 652.022 256.322C652.022 266.042 650.163 274.536 646.447 281.805C642.771 289.074 637.564 294.73 630.825 298.773C624.086 302.816 616.122 304.838 606.932 304.838ZM607.055 287.073C612.037 287.073 616.203 285.705 619.552 282.969C622.901 280.192 625.393 276.476 627.026 271.82C628.701 267.165 629.538 261.978 629.538 256.261C629.538 250.503 628.701 245.296 627.026 240.64C625.393 235.944 622.901 232.207 619.552 229.43C616.203 226.653 612.037 225.265 607.055 225.265C601.949 225.265 597.702 226.653 594.312 229.43C590.963 232.207 588.451 235.944 586.777 240.64C585.143 245.296 584.326 250.503 584.326 256.261C584.326 261.978 585.143 267.165 586.777 271.82C588.451 276.476 590.963 280.192 594.312 282.969C597.702 285.705 601.949 287.073 607.055 287.073Z" fill="white"/>
<path d="M689.572 247.869V303H667.394V208.909H688.591V224.897H689.694C691.859 219.629 695.31 215.443 700.048 212.339C704.826 209.236 710.728 207.684 717.753 207.684C724.246 207.684 729.903 209.072 734.722 211.849C739.583 214.626 743.34 218.649 745.995 223.917C748.69 229.185 750.018 235.576 749.977 243.091V303H727.8V246.521C727.8 240.232 726.166 235.311 722.899 231.758C719.672 228.205 715.2 226.429 709.482 226.429C705.602 226.429 702.151 227.286 699.129 229.001C696.147 230.676 693.799 233.106 692.083 236.291C690.409 239.476 689.572 243.336 689.572 247.869Z" fill="white"/>
<path d="M810.117 304.838C800.928 304.838 792.964 302.816 786.225 298.773C779.486 294.73 774.258 289.074 770.542 281.805C766.866 274.536 765.028 266.042 765.028 256.322C765.028 246.603 766.866 238.088 770.542 230.778C774.258 223.468 779.486 217.791 786.225 213.748C792.964 209.705 800.928 207.684 810.117 207.684C819.307 207.684 827.271 209.705 834.01 213.748C840.749 217.791 845.956 223.468 849.632 230.778C853.349 238.088 855.207 246.603 855.207 256.322C855.207 266.042 853.349 274.536 849.632 281.805C845.956 289.074 840.749 294.73 834.01 298.773C827.271 302.816 819.307 304.838 810.117 304.838ZM810.24 287.073C815.223 287.073 819.388 285.705 822.738 282.969C826.087 280.192 828.578 276.476 830.212 271.82C831.886 267.165 832.723 261.978 832.723 256.261C832.723 250.503 831.886 245.296 830.212 240.64C828.578 235.944 826.087 232.207 822.738 229.43C819.388 226.653 815.223 225.265 810.24 225.265C805.135 225.265 800.887 226.653 797.497 229.43C794.148 232.207 791.636 235.944 789.962 240.64C788.328 245.296 787.511 250.503 787.511 256.261C787.511 261.978 788.328 267.165 789.962 271.82C791.636 276.476 794.148 280.192 797.497 282.969C800.887 285.705 805.135 287.073 810.24 287.073Z" fill="white"/>
<path d="M870.58 303V208.909H891.777V224.897H892.879C894.84 219.507 898.087 215.3 902.62 212.278C907.154 209.215 912.565 207.684 918.855 207.684C925.226 207.684 930.597 209.236 934.967 212.339C939.378 215.402 942.482 219.588 944.279 224.897H945.259C947.342 219.67 950.854 215.504 955.796 212.401C960.779 209.256 966.681 207.684 973.501 207.684C982.16 207.684 989.225 210.42 994.698 215.892C1000.17 221.365 1002.91 229.349 1002.91 239.844V303H980.669V243.274C980.669 237.434 979.117 233.167 976.013 230.472C972.909 227.735 969.111 226.367 964.618 226.367C959.268 226.367 955.082 228.042 952.059 231.39C949.078 234.698 947.587 239.007 947.587 244.316V303H925.839V242.355C925.839 237.496 924.368 233.616 921.428 230.717C918.528 227.817 914.73 226.367 910.033 226.367C906.847 226.367 903.948 227.184 901.334 228.818C898.72 230.41 896.637 232.677 895.085 235.617C893.533 238.517 892.757 241.906 892.757 245.786V303H870.58Z" fill="white"/>
<path d="M1021.96 303V208.909H1044.13V303H1021.96ZM1033.11 195.555C1029.59 195.555 1026.57 194.391 1024.04 192.063C1021.51 189.695 1020.24 186.857 1020.24 183.549C1020.24 180.2 1021.51 177.362 1024.04 175.034C1026.57 172.665 1029.59 171.481 1033.11 171.481C1036.66 171.481 1039.68 172.665 1042.17 175.034C1044.7 177.362 1045.97 180.2 1045.97 183.549C1045.97 186.857 1044.7 189.695 1042.17 192.063C1039.68 194.391 1036.66 195.555 1033.11 195.555Z" fill="white"/>
<path d="M1104.53 304.838C1095.14 304.838 1087.07 302.775 1080.34 298.651C1073.64 294.526 1068.47 288.829 1064.84 281.56C1061.24 274.25 1059.44 265.837 1059.44 256.322C1059.44 246.766 1061.28 238.333 1064.96 231.023C1068.63 223.672 1073.82 217.955 1080.52 213.871C1087.26 209.746 1095.22 207.684 1104.41 207.684C1112.05 207.684 1118.81 209.093 1124.69 211.911C1130.61 214.688 1135.33 218.629 1138.84 223.733C1142.35 228.797 1144.35 234.719 1144.85 241.498H1123.65C1122.79 236.965 1120.75 233.187 1117.52 230.165C1114.34 227.102 1110.07 225.571 1104.72 225.571C1100.18 225.571 1096.2 226.796 1092.77 229.246C1089.34 231.656 1086.67 235.127 1084.75 239.66C1082.87 244.193 1081.93 249.625 1081.93 255.955C1081.93 262.366 1082.87 267.879 1084.75 272.494C1086.62 277.068 1089.26 280.6 1092.65 283.091C1096.08 285.542 1100.1 286.767 1104.72 286.767C1107.99 286.767 1110.91 286.154 1113.48 284.929C1116.09 283.663 1118.28 281.846 1120.03 279.477C1121.79 277.109 1122.99 274.23 1123.65 270.84H1144.85C1144.31 277.497 1142.35 283.398 1138.96 288.543C1135.57 293.648 1130.96 297.65 1125.12 300.55C1119.28 303.408 1112.42 304.838 1104.53 304.838Z" fill="white"/>
<path d="M1233.98 233.779L1213.76 235.985C1213.19 233.943 1212.19 232.023 1210.76 230.227C1209.37 228.43 1207.49 226.98 1205.12 225.877C1202.75 224.775 1199.85 224.223 1196.42 224.223C1191.81 224.223 1187.93 225.224 1184.78 227.225C1181.68 229.226 1180.15 231.819 1180.19 235.005C1180.15 237.741 1181.15 239.966 1183.19 241.682C1185.27 243.397 1188.71 244.806 1193.48 245.908L1209.53 249.339C1218.44 251.258 1225.05 254.301 1229.38 258.466C1233.75 262.632 1235.96 268.083 1236 274.822C1235.96 280.743 1234.22 285.971 1230.79 290.504C1227.4 294.996 1222.69 298.508 1216.64 301.04C1210.6 303.572 1203.65 304.838 1195.81 304.838C1184.29 304.838 1175.02 302.428 1168 297.609C1160.97 292.75 1156.79 285.991 1155.44 277.333L1177.07 275.25C1178.05 279.498 1180.13 282.703 1183.31 284.868C1186.5 287.032 1190.65 288.115 1195.75 288.115C1201.02 288.115 1205.25 287.032 1208.43 284.868C1211.66 282.703 1213.27 280.029 1213.27 276.843C1213.27 274.148 1212.23 271.922 1210.15 270.166C1208.1 268.41 1204.92 267.062 1200.59 266.123L1184.54 262.754C1175.51 260.876 1168.84 257.711 1164.51 253.259C1160.18 248.767 1158.03 243.091 1158.07 236.23C1158.03 230.431 1159.61 225.408 1162.79 221.16C1166.02 216.872 1170.49 213.565 1176.21 211.237C1181.97 208.868 1188.6 207.684 1196.12 207.684C1207.15 207.684 1215.82 210.032 1222.15 214.728C1228.53 219.425 1232.47 225.775 1233.98 233.779Z" fill="white"/>
<path d="M149.436 0.096592C188.897 -1.30418 227.374 12.575 256.82 38.8319C288.813 67.3672 306.45 106.749 308.824 149.294C310.92 189.888 296.913 229.674 269.839 260.04C247.124 285.436 216.727 302.741 183.264 309.328C175.04 310.915 168.065 311.524 159.789 311.977C150.476 312.086 142.258 311.841 132.984 310.483C105.184 306.418 76.7257 293.93 55.3237 275.702C23.5564 249.128 3.8138 210.934 0.528072 169.695C-2.8893 128.011 10.3796 86.6725 37.4308 54.7297C67.5624 19.5008 103.637 3.72437 149.436 0.096592ZM105.513 219.43C119.069 228.928 128.084 234.192 143.396 240.957L146.491 242.153C153.111 230.563 158.598 220.516 164.531 208.542C149.901 202.216 141.118 197.472 127.929 188.351L105.513 219.43ZM67.8465 184.31C73.8829 191.413 79.198 197.351 86.0864 203.725C90.8394 208.124 94.6782 211.02 99.6162 215.029C100.232 215.497 100.943 216.067 101.577 216.488C105.644 210.556 109.812 204.696 114.082 198.907C117.328 194.435 120.562 189.808 123.966 185.466C117.761 180.906 111.874 175.933 106.344 170.578C104.822 169.095 94.0513 157.277 93.7031 157.136C87.146 163.352 80.8358 169.821 74.7872 176.531C72.6285 178.901 69.8471 181.858 67.8465 184.31ZM151.106 244.115C163.234 248.467 175.618 252.304 188.473 253.811L192.839 254.401C197.397 244.922 203.746 229.962 206.118 219.675C194.445 217.934 183.423 215.705 172.385 211.499C171.46 211.146 169.996 210.643 169.055 210.435C165.541 217.724 161.844 224.922 157.968 232.024C155.787 235.994 153.172 240.202 151.106 244.115ZM97.5892 153.474C104.688 162.653 114.136 171.391 123.201 178.584L126.983 181.442C134.355 170.92 143.551 158.621 151.493 148.411C146.354 144.276 141.622 140.402 136.962 135.671C135.522 134.232 134.12 132.755 132.759 131.241C131.99 130.377 129.243 127.153 128.543 126.635C125.106 129.211 121.372 132.238 118.143 135.097C111.382 141.082 103.937 147.105 97.5892 153.474ZM131.08 184.282C139.411 190.524 151.438 197.331 160.931 201.494C162.734 202.251 165.058 203.304 166.883 203.877C172.292 191.597 178.392 178.985 183.257 166.506C173.074 162.066 164.63 157.782 155.511 151.239L139.198 173.147C137.136 175.922 132.601 181.682 131.08 184.282ZM85.4151 248.235C95.2949 255.825 108.42 263.29 119.696 268.482C120.935 269.052 125.201 270.854 126.32 271.095C130.852 265.54 135.098 259.758 139.041 253.774C140.497 251.578 142.424 248.766 143.642 246.472C133.65 242.329 124 237.408 114.782 231.751C111.681 229.843 105.14 225.011 102.531 223.669L91.7757 238.99C89.7399 241.887 87.2122 245.288 85.4151 248.235ZM44.1032 144.457C49.2034 158.027 55.9984 168.002 64.1439 179.649L64.5425 179.922C65.2919 179.729 68.6137 175.523 69.4242 174.619C73.9998 169.444 78.754 164.429 83.6778 159.584C85.8963 157.374 88.4435 155.076 90.5675 152.92C84.7135 144.29 78.7855 136.953 74.4686 127.097C74.1023 126.261 72.237 121.549 71.6803 121.407C65.2224 125.42 49.0681 138.732 44.1032 144.457ZM46.8976 212.126C55.0077 221.852 63.472 230.86 73.2701 238.919C75.4643 240.725 78.9703 243.675 81.3535 245.206C86.6299 237.423 92.9559 228.115 98.5909 220.664C96.7957 219.122 94.7573 217.685 92.8866 216.191C89.7433 213.676 86.6746 211.07 83.6845 208.375C76.1301 201.576 71.1027 195.668 64.5816 188.152C58.3673 195.25 51.9965 204.243 46.8976 212.126ZM171.367 205.797C180.951 209.34 190.841 212.002 200.911 213.748C203.14 214.058 205.373 214.335 207.61 214.58C210.643 203.187 214.477 186.931 215.915 175.063C207.608 173.875 199.645 172.236 191.684 169.563C190.478 169.16 189.04 168.639 187.823 168.332C184.426 176.505 180.931 184.64 177.338 192.729C175.44 196.984 173.126 201.598 171.367 205.797ZM76.2048 118.374C79.8627 127.097 86.7602 140.219 92.8392 147.496L94.3819 149.531C100.488 143.798 106.743 138.224 113.14 132.815C117.058 129.482 121.38 125.714 125.51 122.736C120.677 116.107 116.35 109.972 112.95 102.432C112.612 101.68 111.379 98.8255 110.91 98.3429C109.507 98.935 108.111 99.6166 106.774 100.343C96.6852 105.822 85.4445 111.591 76.2048 118.374ZM211.24 220.154C208.642 228.896 205.892 237.325 202.278 245.705C201.75 246.927 198.383 254.082 198.32 254.817L198.487 254.958C210.421 255.905 223.622 255.721 235.315 252.885C239.816 241.724 243.001 230.856 244.667 218.879L244.491 218.682C241.869 219.016 239.264 219.443 236.642 219.777C228.186 220.852 219.729 220.696 211.24 220.154ZM131.434 273.048C137.902 275.712 163.775 283.849 172.963 283.478C172.983 283.465 173.002 283.45 173.022 283.437C178.574 276.916 183.607 270.47 187.965 263.079C188.716 261.802 189.535 260.436 190.339 259.198C173.443 256.801 164.491 254.383 148.422 248.419C143.718 255.825 139.071 263.105 133.667 270.037C132.944 270.962 132.078 272.081 131.434 273.048ZM220.942 175.592C219.671 184.21 218.059 192.774 216.11 201.264C215.433 204.122 214.718 206.97 213.964 209.811C213.604 211.185 212.876 213.624 212.72 214.951C213.158 215.324 213.022 215.157 213.823 215.215C224.554 215.792 234.783 215.64 245.303 213.024C247.145 201.123 246.785 185.945 246.181 174.023L245.866 173.984C235.572 175.746 231.516 175.766 220.942 175.592ZM22.7221 170.79C23.4433 173.158 24.6048 175.562 25.6205 177.828C29.5909 186.678 34.6425 195.04 40.1467 203.018C40.806 203.974 43.0699 207.261 43.8347 207.807C47.4717 201.648 50.8409 197.095 55.3163 191.428C56.903 189.42 59.8933 185.988 61.1886 184.102C59.4002 181.511 57.4743 179.061 55.6533 176.414C51.4587 170.365 47.7098 164.021 44.4362 157.431C43.8513 156.236 40.6583 148.792 40.1013 148.463C34.0073 154.174 27.1773 163.837 22.7221 170.79ZM158.225 79.1648C159.589 82.8126 162.009 86.6662 164.185 89.8817L166.251 92.7461C173.491 87.8719 180.838 83.1538 188.282 78.5946C192.044 76.2941 199.604 71.9895 202.936 69.5543C201.543 69.581 200.184 69.5708 198.802 69.7453C188.408 70.9423 177.425 73.4765 167.389 76.3733C164.528 77.1993 160.981 78.1673 158.225 79.1648ZM269.144 105.067C272.899 109.884 276.484 114.734 279.738 119.906C280.8 121.596 287.855 134.21 288.112 134.39L288.344 134.177C289.723 130.017 292.999 118.711 290.855 115.101C287.629 109.67 277.018 97.6623 271.922 94.2407C271.066 99.0299 270.662 100.43 269.144 105.067ZM130.621 16.9655C140.195 18.4974 149.581 21.0273 158.626 24.5137L162.245 25.8651C165.873 22.9733 168.873 21.4431 173.165 19.6989C168.03 16.3101 152.918 7.53232 147.163 8.28854C141.213 10.3024 135.374 12.7309 130.621 16.9655ZM30.0315 102.287C30.1079 94.9917 30.3823 88.7588 31.6374 81.4918C31.8772 80.1025 33.6589 73.9407 33.4093 73.2409C21.0749 85.9775 13.0261 103.24 13.1829 121.155C13.1859 121.498 13.1823 121.415 13.2192 121.694C18.2514 114.64 23.4997 108.065 30.0315 102.287ZM210.782 122.125C214.001 122.89 216.849 123.557 220.192 123.692C220.366 117.33 219.971 83.5648 217.52 80.5511C216.89 81.9904 216.143 85.1148 215.735 86.7293C214.853 90.2394 213.997 93.6525 212.998 97.1366C211.605 101.978 210.148 106.8 208.629 111.603C207.734 114.414 206.45 118.028 205.727 120.822L210.782 122.125ZM186.861 66.6648C191.141 65.9227 196.206 64.9182 200.464 64.4735C190.046 61.881 169.998 60.7618 159.252 61.0402L153.422 61.2438C154 66.4829 154.49 69.4429 156.246 74.4597C165.2 71.8386 174.108 69.2044 183.279 67.4368C184.47 67.2072 185.69 66.9763 186.861 66.6648ZM64.7319 269.241C58.5193 263.918 53.8344 260.306 47.7641 254.39C45.5254 252.176 43.3477 249.902 41.2339 247.571C40.3427 246.587 35.9013 241.468 35.1577 240.998C35.1521 242.156 35.0561 245.741 35.4833 246.472C38.0475 250.86 44.4753 257.772 48.0052 261.33C52.336 265.753 56.9286 269.909 61.7584 273.781L63.051 271.797L64.7319 269.241ZM237.509 123.149L238.163 122.907C238.25 122.192 237.379 119.11 237.149 118.276C234.038 106.981 230.341 95.7776 225.405 85.136C225.001 84.2645 223.928 81.8909 223.235 81.2763C223.616 88.2166 224.391 95.3267 224.815 102.343C225.199 109.593 225.329 116.854 225.212 124.113C229.932 124.223 232.913 123.952 237.509 123.149ZM196.41 58.63C197.364 58.7536 198.489 58.9333 199.432 58.9845C187.676 53.0837 168.399 46.7726 155.416 44.5809C154.156 48.7951 153.47 51.8243 153.222 56.2363C158.75 56.1823 163.696 55.9765 169.296 56.1142C178.824 56.3481 187.068 57.3951 196.41 58.63ZM67.7192 264.939L69.1481 262.676C72.154 258.336 75.2295 253.7 78.336 249.484C70.7132 243.506 63.555 237.705 56.7105 230.782C53.8512 227.89 51.1669 224.818 48.4488 221.804C47.768 221.05 44.6906 217.321 44.1174 216.928C40.8308 223.148 38.6403 227.781 36.4515 234.541C43.0795 243.43 58.3214 259.181 67.7192 264.939ZM280.937 196.332C281.538 195.822 282.166 195.304 282.755 194.784C286.641 190.951 295.816 180.64 296.008 175.493C296.175 170.979 290.099 149.418 287.894 146.165C282.879 152.915 282.11 154.699 275.33 160.57C278.419 173.739 280.281 182.662 280.937 196.332ZM10.0058 187.623L11.1173 184.141C12.7554 179.148 14.5336 175.506 16.9281 170.862C14.0173 161.489 11.0858 152.493 9.68994 142.747C9.53983 141.699 9.27395 139.998 8.96201 139.006C3.37349 153.523 5.53292 173.006 10.0058 187.623ZM192.422 16.9473L192.943 16.8363C192.546 15.3318 185.803 10.1485 184.287 9.26155C180.397 6.98359 162.536 5.63745 157.447 6.32472C165.549 9.56746 171.855 12.8477 178.926 18.041C184.165 17.0676 187.139 16.8696 192.422 16.9473ZM136.018 7.47856C126.878 8.49277 117.871 10.4652 109.145 13.3637C107.5 13.9066 104.789 14.7333 103.281 15.4478C103.861 15.6625 103.722 15.5692 104.435 15.4756C110.722 15.1025 118.346 15.0446 124.577 15.8014C127.684 12.9993 130.495 11.0135 134.178 9.00941C134.63 8.76334 136.473 7.82284 136.596 7.42609L136.018 7.47856ZM44.1239 59.4055C50.3817 54.9656 61.4968 49.0022 68.7916 46.4062C70.8655 40.9685 73.8273 35.9276 77.2249 31.2147C77.8195 30.3902 81.0196 26.543 81.0216 26.0578L80.808 26.0014C69.6381 31.4478 48.2644 47.3479 43.851 59.0163L43.9034 59.3858L44.1239 59.4055ZM40.7308 212.603C33.3035 202.591 26.4301 192.475 21.4819 181.008C21.0831 180.085 19.9218 177.383 19.3866 176.674C16.6641 181.715 14.7893 187.005 13.5103 192.596C12.6096 196.531 14.6648 199.315 16.0967 202.812C20.3615 212.319 26.0456 221.087 32.4203 229.321L32.8284 229.416C33.1019 228.948 33.0635 229.074 33.2142 228.562C35.4206 222.719 37.827 218.164 40.7308 212.603ZM217.396 282.854C222.514 276.237 226.872 270.65 230.647 263.107C231.162 262.075 232.548 259.868 232.598 258.78C232.139 258.706 232.318 258.676 232.059 258.745C219.751 260.501 208.054 261.317 195.626 259.738C191.356 267.42 186.876 274.759 181.331 281.603C180.838 282.21 179.408 283.749 179.319 284.404L179.808 284.491C193.649 285.826 203.74 285.581 217.396 282.854ZM290.946 140.929C293.964 148.197 298.23 158.829 299.731 166.523L300.002 167.447L300.237 167.438C300.789 166.441 301.121 164.301 301.434 163.074C303.767 153.862 303.309 143.302 300.854 134.147C300.326 132.176 297.45 124.225 295.843 123.057C295.58 128.878 293.179 135.605 290.946 140.929ZM243.088 121.726C245.442 120.842 247.586 119.927 249.802 118.725C250.905 118.035 252.05 117.349 253.089 116.572C251.748 113.299 249.383 109.391 247.567 106.331C242.905 98.4738 237.689 90.6693 231.733 83.7201C231.077 82.9543 229.531 81.1536 228.801 80.6378C229.42 82.516 230.321 84.4455 231.082 86.2868C235.81 97.7454 240.125 109.68 243.088 121.726ZM196.656 52.414C198.118 53.0449 199.71 53.6979 201.128 54.3906C199.31 52.6373 196.934 50.9166 194.894 49.3987C185.208 42.196 174.653 36.439 163.725 31.368C160.783 34.4752 159.309 36.3376 157.299 40.204C170.804 42.9154 183.992 47.0069 196.656 52.414ZM113.767 290.761C120.429 293.18 147.154 303.049 152.707 299.16C158.099 296.63 163.901 292.456 168.26 288.35C157.178 286.65 146.281 283.905 135.717 280.155C133.631 279.426 129.878 278.204 127.929 277.308C122.616 282.93 119.893 285.909 113.767 290.761ZM272.1 88.4087C278.389 93.5275 284.097 98.8903 289.113 105.267C289.723 106.041 290.714 107.378 291.411 108.022C291.157 103.672 289.321 93.2989 287.236 89.6618C284.575 85.0233 275.119 78.3737 270.247 76.0413C271.292 80.769 271.761 83.5057 272.1 88.4087ZM211.716 289.13C199.019 290.848 187.522 290.728 174.781 289.178C168.892 294.999 166.258 297.115 159.252 301.733C170.061 302.978 184 302.273 194.492 299.407C200.635 297.616 207.076 293.56 211.716 289.13ZM167.572 28.1636C179.93 34.0141 187.658 38.6188 198.919 46.4736C201.109 48.0998 203.286 49.7421 205.449 51.4005C199.197 42.0766 191.605 33.7225 182.914 26.6072C182.16 25.9997 179.171 23.6638 178.4 23.3037C174.54 24.2999 170.88 25.9433 167.572 28.1636ZM257.038 113.566C258.052 112.506 259.036 111.417 259.988 110.3C261.237 108.572 262.273 107.27 263.2 105.335C257.198 97.2073 246.678 87.7919 238.665 81.6342C237.494 80.7332 234.21 78.2549 232.95 77.7838C239.201 85.417 244.964 93.4362 250.206 101.793C252.674 105.769 254.702 109.66 257.038 113.566ZM138.484 303.793C129.382 301.618 121.627 299.268 112.893 295.858C111.937 295.483 109.173 294.405 108.338 294.414C106.405 295.364 104.862 296.04 102.873 296.857C109.819 299.602 125.423 304.504 132.74 304.057L138.484 303.793ZM265.772 99.2693C266.609 95.7863 267.032 93.9331 267.123 90.2832C258.356 83.7981 248.848 78.2911 238.693 74.2243C237.933 73.9199 235.328 72.9235 234.62 72.848C237.094 74.9573 239.851 76.7358 242.397 78.7588C247.515 82.8282 252.454 87.2945 257.12 91.8695C258.363 93.0884 264.48 100.024 265.22 100.314C265.748 99.9286 265.514 100.115 265.772 99.2693ZM102.315 291.671C92.2857 287.882 77.3581 278.49 68.9178 272.272C68.0107 273.646 66.705 275.496 65.9058 276.877C73.533 282.711 84.3694 289.172 93.4005 292.927C94.3494 293.321 97.3566 292.892 98.4727 292.673C99.8015 292.354 101.004 292.055 102.315 291.671ZM236.962 37.5861C232.548 34.289 228.295 31.6234 223.24 29.3454C223.277 36.5058 223.079 43.3388 222.336 50.4754C222.201 51.7805 222.269 52.1452 223.576 52.4413C224.619 51.9774 228.423 46.9568 229.457 45.6662C231.877 42.8757 234.277 40.1336 236.962 37.5861ZM268.357 70.0901C273.025 72.3251 277.431 75.0687 281.495 78.2629C281.777 78.4854 281.701 78.4181 282.092 78.5632C277.144 70.5646 270.784 59.3617 261.452 56.6829C264.458 61.7266 266.131 64.5633 268.357 70.0901ZM281.206 202.769C280.858 211.63 280.348 219.989 278.354 228.664C278.13 229.635 277.224 231.905 277.717 232.666C288.546 223.213 296.379 209.321 297.457 194.873C297.559 193.511 297.787 185.838 297.218 185.112C291.507 193.552 288.889 196.15 281.206 202.769ZM262.049 52.2633L262.492 52.3932C262.164 50.861 247.999 37.7292 245.966 37.0248C245.247 37.4428 245.027 37.4068 244.686 38.0252C245.218 38.7786 248.075 41.1682 248.926 42.0076C251.92 44.9592 255.122 48.1417 257.642 51.5126C259.26 51.6929 260.448 51.9295 262.049 52.2633ZM264.282 73.1015C257.148 69.7991 241.906 66.1447 234.099 67.0134C235.869 67.9736 237.802 68.6778 239.655 69.4904C242.521 70.7687 245.368 72.0892 248.194 73.452C255.15 76.8186 260.626 80.3661 266.963 84.6495C266.472 81.3385 265.403 76.2345 264.282 73.1015ZM245.818 168.525C244.758 154.317 242.399 142.504 239.647 128.611C239.275 128.406 239.44 128.427 239.188 128.426C233.986 129.329 230.499 129.637 225.188 129.754C224.747 137.982 224.376 145.996 223.587 154.202C223.29 157.396 222.957 160.587 222.592 163.772C222.364 165.693 221.945 168.355 221.882 170.222C224.267 170.463 226.941 170.484 229.35 170.452C234.894 170.406 240.416 169.76 245.818 168.525ZM30.4542 239.27L31.09 235.606C28.0908 231.452 25.1726 227.242 22.3367 222.977C21.536 221.772 18.4141 216.599 17.6488 216.098C18.7923 219.237 28.2543 238.418 30.4036 239.432L30.4542 239.27ZM252.728 55.8506C246.424 56.1654 241.563 57.2329 235.656 59.5198C234.633 59.9159 232.995 60.3879 232.192 61.04L232.248 61.5358C234.136 62.0674 243.057 62.617 245.994 63.1276C252.493 64.2775 255.715 65.1237 261.993 67.2705C259.898 62.779 258.113 59.995 255.387 55.9004L252.728 55.8506ZM275.019 240.634C273.983 243.402 272.854 246.134 271.815 248.898L272.009 249.169C275.176 245.089 278.588 240.063 281.325 235.723L281.158 235.454C279.201 237.284 277.153 239.012 275.019 240.634ZM156.146 306.414L157.062 306.321C156.254 305.967 152.8 305.833 151.71 305.777C151.056 305.896 150.498 305.861 150.135 306.243C151.491 306.553 154.653 306.464 156.146 306.414ZM219.897 287.821C218.083 289.751 216.349 291.361 214.449 293.185L214.62 293.408C216.458 292.576 231.123 285.564 231.544 284.58L231.427 284.51C227.102 286.004 224.115 286.616 219.897 287.821ZM205.453 74.0996C194.536 80.3215 179.756 89.081 169.542 96.58C170.906 98.5681 173.949 101.306 175.783 103.008C177.369 104.372 180.414 107.113 182.102 108.165C186.216 102.479 190.671 96.9972 194.92 91.4045C198.806 86.2905 202.701 81.1683 206.457 75.9555C206.683 75.6407 206.681 75.4106 206.67 75.0488C206.394 74.51 206.079 74.2015 205.453 74.0996ZM222.164 21.7319L222.723 24.4424C227.189 26.2945 231.342 28.5539 235.385 31.2058C236.988 32.2573 238.469 33.5479 240.157 34.4659C240.303 34.5442 241.248 34.1023 241.417 34.0162L241.48 33.5525C238.858 30.6508 226.085 23.4418 222.164 21.7319ZM250.59 211.833C251.772 211.497 253.31 211.101 254.446 210.706C262.655 208.05 268.826 205.164 275.999 200.176C275.995 192.043 274.967 183.673 273.627 175.662C273.369 174.107 271.568 164.509 270.929 163.72C263.948 167.924 259.297 170.517 251.233 172.583C252.161 183.055 251.996 201.795 250.59 211.833ZM216.773 21.6588C216.397 20.6305 216.071 19.7319 215.617 18.7283C210.712 16.5956 198.57 11.6295 193.248 10.785C195.537 12.9665 197.77 15.2044 199.949 17.496C203.633 18.02 206.644 18.5642 210.28 19.578C212.394 20.1672 214.779 21.1294 216.773 21.6588ZM203.581 22.7012C206.114 26.6163 208.327 30.0708 210.28 34.3204C212.528 39.2174 214.305 44.1228 216.178 49.1617C216.397 49.7551 216.465 49.7556 216.927 50.0725L217.249 49.8893L217.403 49.1852C218.207 41.1699 218.711 34.9541 217.966 26.9038C212.687 24.9681 209.196 23.7124 203.581 22.7012ZM67.994 76.7767C78.2885 71.9689 88.7799 67.8993 99.7204 64.8545C101.06 64.4818 102.498 64.1143 103.816 63.6952C103.953 59.0189 104.3 54.8366 105.319 50.2406C105.517 49.348 107.269 42.7578 107.204 42.4629L107.153 42.4102C96.4002 43.3401 83.0543 46.8326 72.7935 50.0472C69.9321 57.7823 68.3331 64.8714 67.8154 73.1381C67.7594 74.03 67.5661 75.9076 67.8056 76.6486L67.994 76.7767ZM184.272 21.9836C192.694 28.9341 201.808 37.8955 208.223 46.7524L211.047 50.2011C208.775 41.9266 203.036 28.0268 197.197 21.7792C194.809 21.6543 192.707 21.5379 190.315 21.5851C188.297 21.6541 186.281 21.787 184.272 21.9836ZM251.672 51.3571C249.989 49.1095 243.122 41.7889 240.859 40.539C238.854 42.3831 226.429 55.0341 228.481 56.6302C230.239 56.5606 234.316 54.9361 236.149 54.2744C241.093 52.7681 246.498 51.6326 251.672 51.3571ZM249.782 217.42C249.183 225.62 246.7 233.973 244.621 241.889C244.234 243.365 241.482 250.724 241.556 251.526C253.206 248.443 260.748 245.453 270.686 238.411C273.445 229.685 275.15 219.946 275.899 210.829C275.975 209.895 276.182 207.211 275.869 206.398C266.617 212.152 260.133 214.537 249.782 217.42ZM71.6905 268.092C83.4862 276.781 94.1384 283.27 107.885 288.601C108.798 287.96 109.877 287.162 110.796 286.561C114.912 283.736 119.531 279.084 122.773 275.327C112.998 270.99 105.453 267.459 96.2685 261.748C93.1175 259.76 90.0073 257.709 86.9398 255.595C85.9404 254.917 83.2685 252.987 82.3106 252.499C78.7025 257.651 75.1622 262.849 71.6905 268.092ZM211.542 78.1799C209.544 79.8831 201.065 91.2751 199.037 93.9333L190.828 104.703C189.411 106.565 187.376 109.077 186.151 110.978C187.943 112.129 189.548 113.148 191.412 114.199C193.969 115.696 198.292 118.005 201.085 118.898C203.157 112.964 212.578 83.4779 212.051 78.7256C211.875 78.5237 211.744 78.3444 211.542 78.1799ZM125.894 21C120.991 26.0324 117.904 30.416 114.95 36.8843C126.978 36.6433 135.788 36.7458 147.834 38.5355L152.005 39.1142C154.034 35.0582 155.44 32.8364 158.548 29.4731C152.436 26.8333 132.389 21.0754 125.894 21ZM266.767 109.82C264.317 113.628 262.894 115.398 259.492 118.522C262.301 124.501 265.181 130.607 267.586 136.76C269.9 142.681 271.911 148.909 273.836 154.97L276.158 152.746C279.955 148.81 282.807 145.069 285.379 140.169C281.428 131.209 275.658 121.786 270.021 113.801C269.304 112.785 267.708 110.494 266.767 109.82ZM268.155 245.637C258.102 252.176 250.401 254.65 238.949 257.503C235.68 264.59 232.109 271.411 227.602 277.813C227.152 278.453 225.199 280.716 225.284 281.404C237.101 278.956 254.533 270.715 260.982 260.389C262.457 258.026 268.064 248.111 268.155 245.637ZM145.631 61.6854C133.897 62.7662 120.381 64.5798 108.974 67.5944C109.591 73.3913 110.863 86.0906 113.784 91.039C113.943 91.0635 114.102 91.0878 114.261 91.112C126.925 85.2583 137.86 80.674 151.104 76.1324C149.353 70.2464 148.746 67.6877 148 61.5419L145.631 61.6854ZM109.728 19.8492C104.173 20.0942 95.5919 20.8293 90.3839 23.2359C89.5756 23.6092 87.6445 25.6723 86.9855 26.3897C82.0929 31.7552 78.083 37.8602 75.1042 44.4779C78.005 43.5313 80.9334 42.6713 83.8854 41.8984C92.1995 39.7754 100.636 38.1631 109.148 37.0701C112.404 29.9525 115.115 26.0511 120.095 20.2329C117.717 19.914 112.185 19.5634 109.728 19.8492ZM117.767 41.7681C116.112 41.8479 114.466 41.9168 112.815 42.0616C110.838 48.4183 108.857 55.6591 109.037 62.4009C119.071 60.4822 125.846 58.7959 136.414 57.6102C139.879 57.092 144.246 56.7815 147.796 56.5313C148.345 51.1613 148.67 48.8107 150.122 43.6918C142.263 42.1902 125.809 41.0127 117.767 41.7681ZM255.421 121.597C251.233 124.193 249.042 125.241 244.337 126.99C245.182 131.868 246.422 137.01 247.347 141.987C248.844 150.31 250.013 158.688 250.853 167.102C252.969 166.545 255.026 165.914 257.044 165.064C260.88 163.562 266.393 160.733 269.569 158.014C266.626 147.491 262.892 137.207 258.395 127.247C257.874 126.07 256.399 122.524 255.65 121.656L255.421 121.597ZM66.09 52.5096C56.3345 56.4964 48.9497 61.6117 40.5099 67.6816C37.0528 77.167 35.2316 87.1688 35.1232 97.2619L35.4716 97.3794C43.9974 90.0887 52.4737 84.7692 62.4074 79.5616C62.5821 73.4076 62.9911 67.7052 64.259 61.6635C64.511 60.4627 66.5127 52.8348 66.4541 52.5402L66.09 52.5096ZM30.076 108.612C23.1863 115.464 18.1161 121.635 13.3082 130.155C13.6408 141.073 17.2196 154.523 20.4288 164.869L20.7082 165.086L20.935 164.754C25.9022 157.324 31.8605 149.686 38.1854 143.362C35.0984 134.298 32.3614 125.413 31.0741 115.885C30.9208 114.75 30.5057 109.256 30.076 108.612ZM74.386 113.285C75.1604 113.299 80.7281 109.481 81.7918 108.823C87.6547 105.221 93.6186 101.787 99.6764 98.5224C102.608 96.941 106.269 95.1953 109.054 93.5717C106.995 86.7502 105.129 80.6035 104.26 73.516C104.077 72.0268 104.096 70.5384 103.838 69.1157C103.481 68.9575 103.643 68.9681 103.368 68.9965C91.4483 71.9175 78.8144 76.9933 67.8372 82.3625C68.1732 91.8745 70.9858 104.437 74.386 113.285ZM203.907 125.866C200.171 137.074 194.479 152.545 189.765 163.493C196.221 165.567 201.018 167.12 207.736 168.436C210.704 169.008 213.691 169.468 216.69 169.815C218.183 158.137 220.077 141.176 219.97 129.334C214.045 128.736 209.524 127.571 203.907 125.866ZM152.744 80.8971C143.352 84.0384 134.12 87.6423 125.085 91.6957C122.447 92.8742 118.06 94.7589 115.679 96.1681C119.245 104.216 122.53 110.23 127.829 117.401L129.496 119.542C133.613 116.504 137.792 113.064 141.892 109.925C148.375 104.973 155.001 100.209 161.761 95.6391C158.994 91.6788 156.243 87.7871 154.262 83.3587C153.963 82.6855 153.461 81.3621 152.946 80.9307L152.744 80.8971ZM182.81 115.361C180.594 118.016 178.416 120.964 176.345 123.75C170.554 131.54 164.274 139.225 158.681 147.145C164.715 151.141 171.358 155.464 177.944 158.5C180.353 159.584 182.738 160.689 185.21 161.628C189.965 149.462 195.192 136.557 199.28 124.171C192.615 121.26 188.947 119.399 182.81 115.361ZM164.778 99.5045C153.817 107.141 143.097 115.117 132.635 123.423C138.153 129.917 143.677 135.536 150.324 140.876C151.849 142.103 153.024 143.038 154.647 144.115C162.775 133.988 170.58 122.859 178.678 112.539C175.109 109.512 171.629 106.791 168.443 103.326C167.893 102.728 165.163 99.7361 164.778 99.5045ZM62.6309 85.0216C53.9767 89.022 41.9753 97.9938 34.9353 104.282C35.6838 116.248 37.8808 128.044 42.2686 139.257C48.3124 133.254 54.749 127.658 61.5355 122.506C64.2534 120.426 67.1818 118.539 69.848 116.51C67.4576 109.159 65.4379 103.033 64.0314 95.3657C63.5237 92.5989 63.1751 87.293 62.6309 85.0216Z" fill="white"/>
</svg>
